<svg xmlns="http://www.w3.org/2000/svg" width="16" height="16" fill="none" viewBox="0 0 16 16"><path fill="#FFFFFF" d="M12.264 2.101C11.507 1.181 9.274.508 7.293.7c-.207.048-.313.302-.208.496.914 1.334 2.747 1.936 4.474 1.724a3.27 3.27 0 00-.04.984c.017.155.027.27-.027.403-.07.173-.293.464-1.06.789-.919.388-1.942.476-2.915.617a19.53 19.53 0 00-1.564.273c-.484.113-.94.26-1.3.478-.314.19-.685.44-1.038.673-.69-.575-1.712-.107-2.311.397 0 0 .38.948.927.838.3-.06.658-.239 1.016-.45.36.31.607.732.607 1.193 0 .905-.893 1.636-1.457 2.192-.768.758-1.731 1.654-1.731 2.861 0 .65.135 1.165.667 1.165.274 0 .49-.21.456-.506-.06-.545-.345-.659-.08-1.161.266-.503 1.172-1.004 1.804-1.285.915-.408 1.84-.457 2.606-1.233.284-.288.547-.815.547-1.422 1.422.142 3.205-.113 3.978-.414.802-.312 1.555-.777 2.457-.718.505.033.977 0 .637.674-.34.674-.318 1.348 0 1.348.32 0 .638-.216.957-.89.319-.674.753-2.072-.957-2.48.234-.484.171-.99.15-1.383-.016-.3-.106-1.016-.15-1.312.636-.202 1.595-.244 1.595-1.01 0-.768-1.61-1.502-2.551-1.502-.188 0-.363.018-.518.062z"></path></svg>