<svg xmlns="http://www.w3.org/2000/svg" width="16" height="16" fill="none" viewBox="0 0 16 16"><path fill="#FFFFFF" d="M15.316 2.439a.333.333 0 00-.633-.211l-.595 1.784a2.58 2.58 0 00-.922.28l-.51-2.04a.333.333 0 00-.647.162l.57 2.28a3.614 3.614 0 00-1.014 1.547c-.416-.924-1.103-1.658-1.93-2.177-1.37-.858-3.131-1.13-4.719-.72C2.452 3.98.832 6.233 1.504 8.65a3.616 3.616 0 001.797 2.216H3.3c.768.253 1.709.403 2.595.134C7.089 10.64 8.012 9.578 8 8.332c-.012-1.311-1.125-2.475-2.57-2.103-.793.204-1.223.958-1.03 1.648.147.528.63.732 1.039.529a.5.5 0 01.446.895c-1.05.523-2.157-.11-2.449-1.156-.355-1.276.458-2.553 1.745-2.884C7.254 4.727 8.985 6.383 9 8.332c.011 1.68-1.206 3.14-2.816 3.627-1.205.364-2.415.127-3.29-.172a7.996 7.996 0 01-.986-.415c-.477.242-1.246.665-1.242 1.296.007 1.013 3.333 1.331 6 1.331s4.372-1.102 4.965-1.483c2.31-1.485 3.036-5.474 3.035-7.963l.65-2.114z"></path></svg>